<svg width="1440" height="381" fill="none" xmlns="http://www.w3.org/2000/svg"><g clip-path="url(#clip0)"><path d="M0 3a3 3 0 013-3h1434c1.66 0 3 1.343 3 3v378H0V3z" fill="#FEC"/><mask id="a" mask-type="alpha" maskUnits="userSpaceOnUse" x="836" y="101" width="382" height="390"><path d="M1093.98 101.072l-13.63 148.682 137.2 58.902-145.62 32.988-13.62 148.682-76.372-128.294-145.615 32.988 98.415-112.278-76.371-128.294 137.195 58.902 98.418-112.278z" fill="#181716"/><path d="M1089.51 111.48l-12.64 137.954-.23 2.533 2.33 1.003 127.3 54.653-135.11 30.608-2.48.561-.23 2.533-12.64 137.954-70.865-119.038-1.301-2.185-2.48.562-135.109 30.608 91.315-104.177 1.676-1.913-1.301-2.185-70.86-119.038 127.296 54.653 2.337 1.003 1.676-1.912 91.316-104.177z" stroke="#181716" stroke-opacity=".2" stroke-width="7"/></mask><g mask="url(#a)" stroke-width="7"><path d="M1089.51 111.48l-12.64 137.954-.23 2.533 2.33 1.003 127.3 54.653-135.11 30.608-2.48.561-.23 2.533-12.64 137.954-70.865-119.038-1.301-2.185-2.48.562-135.109 30.608 91.315-104.177 1.676-1.913-1.301-2.185-70.86-119.038 127.296 54.653 2.337 1.003 1.676-1.912 91.316-104.177z" stroke="#181716" stroke-opacity=".2"/><path d="M657.467 369.14L809.18 529l140.145-90.869L1288.81 529l33.2-342.73-114.61-43.269-549.933 342.901 664.543-108.77-664.543-84.827 319.879-149.304L1071.83 529l250.18-246.273-276.84-139.726-105.737 100.732-189.387-100.732-92.579 49.426" stroke="#D1C3A7" stroke-linejoin="round"/><path d="M657.467 143.001l133.128 87.166 234.795 109.101 296.62-152.998M1322.01 143l-187.18 45.253" stroke="#D1C3A7" stroke-linejoin="round"/><path d="M1045.17 143l192.4 222.952-191.84 56.399-118.749 106.648L793.758 309.7l-35.543 113.384 275.295-50.645 288.5 91.1-250.18 65.46M1025.39 339.267L657.469 529" stroke="#D1C3A7" stroke-linejoin="round"/><path d="M921.18 169.219l18.253 74.516-24.807 44.066-257.159 4.505 181.686-149.261 398.417 222.91 22.99-114.242 61.45-10.576" stroke="#D1C3A7" stroke-linejoin="round"/></g></g><defs><clipPath id="clip0"><path fill="#fff" d="M0 0h1440v381H0z"/></clipPath></defs></svg>